<svg xmlns="http://www.w3.org/2000/svg" width="510" height="233" fill="none"><g fill-rule="evenodd" clip-path="url(#a)" clip-rule="evenodd"><path fill="#3D3D3D" d="M510 4.581v3.054h-3.054v3.054h-3.054v6.108h-3.054v3.054h-3.054v3.054h-3.053v3.053h-3.054v3.054h-3.054v3.054h-6.108v3.054h-3.054v3.054h-6.108v3.054h-6.107v3.054h-6.108v3.054h-6.108v3.054h-6.108v3.053h-9.162v3.055h-6.107v3.054h-6.108v3.054h-6.108v3.054h-6.108v3.054h-6.107v3.054h-9.162v3.054h-6.108v3.054h-6.108v3.053h-9.161v3.054h-6.108v3.054h-9.162v3.054h-6.108v3.054H345.09v3.054h-6.108v3.054h-9.162v3.054h-9.161v3.054h-9.162v3.054h-9.162v3.053h-9.161v12.216h-3.054V135.9h-3.054v6.106h-3.054v6.108h-3.054v3.054h-3.054v3.054h-3.054v3.054h-6.107v3.054h-3.054v3.054h-6.108v3.054h-6.108v3.053h-6.108v3.054h-6.108v3.054h-6.107v3.054h-6.108v3.054h-9.162v3.054h-6.108v3.054h-9.161v3.054h-9.162v3.054h-6.108v3.053h-3.054v-3.053h-3.053v-3.054h-3.054v3.054h-9.162v3.053h-6.108v3.054h-9.162v3.054h-6.107v3.054h-9.162v3.054h-6.108v3.054h-6.108v3.054h-6.107v3.054h-6.108v3.054h-6.108v3.053h-3.054v-3.053h3.054v-3.054h6.108V215.3h6.108v-3.054h6.107v-3.054h6.108v-3.054h6.108v-3.054h9.162v-3.054h6.107v-3.054h6.108v-3.053h6.108v-3.054h6.108v-3.054h6.108v-6.108h-3.054v-3.054h-3.054v3.054h-6.108v3.054h-6.108v3.054h-6.108v-3.054h6.108v-3.054h6.108v-3.054h6.108v-3.054h9.162v-3.054h6.107v-3.054h6.108v-3.053h6.108v-3.054h6.108v-3.054h6.107v-3.054h3.054v-3.054h3.054v-3.054h3.054v-3.054h3.054v-3.054h3.054v-3.054h3.054v-6.107h3.054v-3.054h-9.162v3.054h-9.162v3.053h-9.161v3.054h-9.162v3.054h-9.162v3.054h-9.161v3.054h-24.432v9.162h-3.053v3.054h-3.054v3.054h-3.054v3.053h-3.054v3.054h-6.108v3.054h-6.108v3.054h-6.107v3.054h-9.162v3.054h-9.162v3.054h-9.161v3.054H85.509v3.054h-9.162v3.053h-9.161v-3.053h3.054v-3.054h6.107v-3.054h3.054v-3.054h-6.108v3.054h-9.161v3.054H54.97v3.054h-9.162v3.053h-9.162v3.054h-9.162v3.054h-6.108v-3.054h-3.054v3.054H15.27v-3.054h3.053v-3.054h3.054v-3.053h3.054v3.053h-3.054v3.054h6.108v-3.054h6.108v-3.053h12.215v-3.054h9.162v-3.054h6.108v-3.054H54.97v-3.054h3.054v-3.054h6.108v-3.054h3.054v-3.054h-6.108v3.054H54.97v3.054h-6.108v3.054h-6.107v3.054H39.7v3.054h-6.108v3.054h-3.054v3.054h-3.054v-3.054h3.054v-3.054h3.054v-3.054h3.054v-3.054h-9.162v3.054h-6.108v-3.054h3.054v-3.054h6.108v-3.054h6.108v-3.054h6.108v-3.054h3.054v-3.053h6.108v-3.054h6.108v-3.054h6.108v-3.054h6.107v-3.054h9.162v-3.054h9.161v-3.054h9.163v-3.054h9.162v-3.054h9.162v-3.054h12.215v-3.053h9.162v-3.054h9.162v-3.054h6.108v-3.054h6.106v-3.054h3.054v-3.054h6.108v-3.054h3.054v-3.054h6.108v-3.054h6.108v-3.053h6.107v-3.054h3.054v-3.054h6.108v-3.054h6.108v-3.054h3.054v-3.054h6.107V90.09h-6.107v-3.054h-6.108v-3.054h-15.27v3.054h-12.215v3.054h-9.162v3.054h-6.108v3.054h-6.107v3.054h-6.108v3.054h-3.054v-3.054h-3.054v3.054h-6.108v3.054h-9.161v3.054h-6.108v3.053h-9.162v3.054h-6.108v3.054h-6.107v3.054h-6.108v3.054h-9.161v3.054h-6.109v3.054H70.24v3.054h-6.108v3.054h-3.054v-3.054h3.054v-3.054h6.107v-3.054h-6.106v-3.054h-6.108v3.054h3.054v3.054H54.97v3.054h-6.108v3.054h-3.054v-3.054h3.054v-3.054h6.108v-6.108h3.054v-3.054h6.108v-3.054h6.107v-3.054h6.108v-3.054h6.108v-3.053h6.108v-3.054h6.108v-3.054h6.107v-3.054h6.108v-3.054h6.108v-3.054h9.162V90.09h6.107v-3.054h6.108v-3.054h6.108v-3.054h6.108v-3.053h3.054V74.82h3.054v-3.054h6.107v-3.054h6.108v-3.054h9.162v-3.054h6.108V59.55h9.161v-3.054h9.162v-3.053h15.269V50.39h36.647v3.053h6.108v3.055h6.108v3.054h3.054v3.054h6.107v3.054h3.054v-6.108h6.108v-3.054h3.054v3.054h3.054v-6.108h6.108V50.39h6.107v-3.054h6.108v-3.054h6.108v-3.054h6.108v-3.054h9.161V35.12h6.108v-3.054h9.162v-3.054h9.162V25.96h9.161v-3.054h9.162V19.85h9.162v-3.054h12.215v-3.054h12.216v-3.054h12.215V7.635h15.27V4.581h21.377V1.527H510v3.054zm-6.108 1.527v1.527h-3.054v3.054h-3.054v3.054h-3.053v3.054h-3.054v-3.054h-3.054V4.58h15.269v1.527zm-24.431 3.054v1.527h-6.108v3.054h-12.215v3.054h-9.162v3.054h-9.162v3.054h-3.054v-6.108h9.162v-3.054h9.162v-3.054h12.215V7.635h9.162v1.527zm-48.862 3.054v1.527h-3.054v-3.054h3.054v1.527zm-6.108 0v1.527h-3.054v3.054h12.216v9.162h3.054v3.053h-6.108v3.054h-9.162v3.054h-6.108v3.054h-9.161v3.054h-6.108v3.054h-9.162v3.054h-9.161v3.054h-6.108v3.053h-9.162v3.055h-6.108v3.054h-9.161v3.054h-6.108v3.054h-6.108v3.054h-9.162v3.054h-6.107v3.054h-9.162v3.054h-6.108v3.053h-9.162v3.054h-6.107v3.054h-9.162v3.054h-6.108v3.054h3.054v3.054h3.054v-3.054h3.054V90.09h9.162v-3.054h3.053v3.054h3.054v-6.108h12.216v-3.054h3.054v-3.053h9.161V74.82h3.054v3.054h3.054v-6.108h12.216v-3.054h3.054v-3.054h9.161v-3.054h3.054v3.054h3.054V59.55h12.216v-3.054h3.054v-3.053h9.161V50.39h3.054v3.053h3.054V50.39h3.054v-3.054h9.162v-3.054h3.054v3.054h3.053v-6.108h12.216v-3.054h3.054V35.12h9.162v-3.054h3.053v6.108h3.054v3.054h-3.054v3.054h-12.215v3.054h-3.054v3.054h-9.162v3.053h-3.054v3.055h3.054v3.054h3.054v-6.108h12.216V50.39h3.054v-3.054h9.161v-3.054h3.054v6.108h-12.215v3.053h-3.054v3.055h-9.162v3.054h-3.054v3.054h-9.161v3.054h-3.054v3.054h-9.162v3.054h-3.054v-3.054h-3.054v6.108h-12.215v3.054h-3.054V74.82h-3.054v6.108h-6.108v3.055h-3.054v-3.055h-3.054v3.055h-3.054v3.054h-9.161v3.054h-3.054v-3.054h-3.054v6.108h-6.108v3.054h-3.054v-3.054h-3.054v3.054h-3.054v3.054h-9.161v3.054h-3.054v-3.054h-3.054v3.054h-3.054v3.054h-9.162v3.054h-3.053v-3.054h-3.054v3.054h-3.054v3.053h-9.162v3.054h-3.054v-3.054h-3.054v3.054h-3.054v3.054h-9.161v3.054h-3.054v-3.054h-3.054v3.054h-3.054v3.054h-9.162v3.054h-3.054v-3.054h-3.053v3.054h-3.054v-3.054h-3.054v6.108H219.88v3.054h-6.108v3.054h-12.215v3.053h-9.162v3.054h-9.161v3.054h-15.27v-3.054h-3.054v-3.054h9.162V135.9h3.054v-3.054h-3.054v-3.054h-3.054v6.108h-9.162v-6.108h3.054v3.054h3.054v-3.054h3.054v-3.054h-3.054v-3.054h3.054v-3.054h3.054v3.054h3.054v3.054h3.054v-6.108h-3.054v-3.054h3.054v3.054h6.107v-3.054h-3.053v-3.054h3.053v-3.054h3.054v3.054h6.108v-3.054h-3.054v-3.053h3.054v3.053h6.108v-3.053h-3.054v-3.054h3.054v-3.054h3.054v-3.054h3.054v-3.054h3.054v3.054h-3.054v3.054h-3.054v3.054h6.108v-3.054h6.107v-3.054h3.054v-3.054h-3.054v-3.054h3.054V90.09h-6.108v-3.054h-3.053v-3.054h3.053v-3.054h-6.107v3.055h-6.108v-3.055h6.108v-3.053h-30.539v3.053h-6.108v3.055h3.054v3.054h-3.054v-3.054h-9.162v3.054h3.054v3.054h-3.054v-3.054h-9.161v3.054h-3.054v3.054h3.054v3.054h-3.054v-3.054h-6.108v-9.163h6.108v-3.054h6.107v-3.053h6.108V74.82h6.108v-3.054h6.108v-3.054h6.108v-3.054h9.161v-3.054h12.216V59.55h15.269v-3.054h27.485v3.054h6.108v3.054h3.054v3.054h3.054v6.108h3.054v3.054h-3.054v-3.054h-6.108v3.054h-6.108v3.054h3.054v3.053h-3.054v-3.053h-6.107v3.053h-6.108v3.056h3.054v3.054h-3.054v-3.054h-6.108v3.054h-6.108v3.054h3.054v3.054h-3.054v3.054h6.108v-3.054h6.108V90.09h6.108v-3.054h6.107v-3.054h6.108v-3.054h6.108v-3.053h6.108V74.82h6.108v-3.054h6.107v-3.054h9.162v-3.054h6.108v-3.054h6.108V59.55h6.107v-3.054h6.108v-3.053h6.108V50.39h-3.054v-3.054h3.054v-3.054h3.054v3.054h-3.054v3.054h6.108v-3.054h9.161v-3.054h6.108v-3.054h-3.054v-3.054h3.054V35.12h3.054v3.054h-3.054v3.054h9.162v-3.054h-3.054V35.12h3.054v-3.054h3.054v3.054h-3.054v3.054h9.161V35.12h-3.053v-3.054h3.053v-3.054h3.054v3.054h-3.054v3.054h9.162v-3.054h9.162v-3.054h9.162V25.96h12.215v-3.054h12.216V19.85h-3.054v-3.054h3.054v-3.054h3.054v3.054h-3.054v3.054h15.269v-3.054h-3.054v-3.054h3.054v-3.054h3.054v1.527zm-9.162 3.054v1.527h-3.054v-3.054h3.054v1.527zm-15.269 3.054v1.527h-3.054v-3.054h3.054v1.527zm-6.108 0v1.527h-3.054v3.054h-3.054V19.85h3.054v-3.054h3.054v1.527zm-9.162 3.054v1.527h-3.053V19.85h3.053v1.527zm-9.161 3.053v1.527h-3.054v-3.053h3.054v1.526zm-9.162 3.054v1.527h-3.054V25.96h3.054v1.526zm70.24 12.216v1.527h-3.054v-3.054h3.054v1.527zm-6.108 0v1.527h-3.054v-3.054h3.054v1.527zm-103.833 3.054v1.527h-3.053v-3.054h3.053v1.527zm97.725 3.054v1.527h-3.054v-3.054h3.054v1.527zm-6.108 0v1.527h-3.054v-3.054h3.054v1.527zm-109.94 3.054v1.527h-3.054v3.053h-3.054V50.39h3.054v-3.054h3.054v1.527zm103.832 3.054v1.526h-3.053V50.39h3.053v1.527zm-6.107 0v1.526h-3.054V50.39h3.054v1.527zm-6.108 0v1.526h-3.054V50.39h3.054v1.527zM296.228 54.97v1.527h-3.054v-3.053h3.054v1.526zm116.047 3.054v1.527h-6.107v6.108h-3.054v-3.054h-3.054v3.054h-12.216v6.108h-3.054v-3.054h-3.053v3.054h-9.162v3.054h-3.054v3.054h-3.054V74.82h-3.054v3.054h-9.162v3.053h3.054v3.056h-3.054v-3.055h-3.053v3.055h-3.054v-3.055h-3.054v3.055h-9.162v3.054h3.054v3.054h-3.054v-3.054h-3.054v3.054h-3.054v-3.054h-3.054v3.054h-9.161v3.054h3.054v3.054h-3.054v-3.054h-3.054v3.054h-12.216v6.108h-3.054v-3.054h-3.053v3.054h-9.162v3.054h3.054v3.054h-3.054v-3.054h-3.054v3.054h-3.054v-3.054h-3.054v3.054h-9.161v3.053h3.053v3.054h-3.053v-3.054h-3.054v3.054h-3.054v-3.054h-3.054v3.054h-9.162v3.054h3.054v3.054h-3.054v-3.054h-3.054v3.054h-3.054v-3.054h-3.054v3.054h-9.161v3.054h-3.054v3.054h-3.054v-3.054h-3.054v3.054h-9.162v3.054h-3.053v3.054h-3.054v-9.162h3.054v3.054h3.053v-3.054h9.162v-3.054h-3.054v-3.054h-3.054v3.054h-9.161v-3.054h9.161v-3.054h3.054v-3.054h9.162v3.054h-6.108v6.108h3.054v-3.054h3.054v3.054h3.054v-3.054h9.161v-3.054h-3.053v-3.054h-3.054v3.054h-3.054v-6.108h6.108v-3.054h9.161v-3.054h3.054v3.054h3.054v3.054h-3.054v-3.054h-3.054v3.054h-9.161v3.053h3.053v3.054h3.054v-3.054h3.054v3.054h3.054v-3.054h9.162v-3.053h-3.054v-3.054h3.054v3.054h3.054v-3.054h3.054v3.054h3.054v-3.054h9.161v-3.054h-3.054v-3.054h3.054v3.054h3.054v-3.054h3.054v3.054h3.054v-3.054h6.108v-6.108h3.054v3.054h3.053v-3.054h12.216v-6.108h3.054v3.054h3.054v-3.054h9.161v-3.054h-3.053v-3.054h3.053v3.055h3.054v-3.055h3.054v3.055h3.054v-3.055h9.162v-3.053h-3.054V74.82h3.054v3.054h3.054V74.82h3.054v3.054h3.053V74.82h9.162v-3.054h-3.054v-3.054h3.054v3.054h3.054v-3.054h3.054v3.054h3.054v-3.054h9.162v-3.054h-3.054v-3.054h3.054v3.054h3.053v-3.054h12.216v-6.108h3.054v3.054h3.054v-3.054h9.161v1.527zm-18.323 0v1.527h-3.054v-3.054h3.054v1.527zm-6.108 0v1.527h-3.054v-3.054h3.054v1.527zm-6.107 0v1.527h-3.054v-3.054h3.054v1.527zm-97.725 3.054v1.527h-3.054v-3.054h3.054v1.527zm91.617 3.054v1.527h-3.054v-3.054h3.054v1.527zm-6.108 0v1.527h-3.054v-3.054h3.054v1.527zm-97.725 3.054v1.527h-3.053v-3.054h3.053v1.527zm85.509 3.054v1.527h-3.054v-3.054h3.054v1.527zm-6.107 0v1.527h-3.054v-3.054h3.054v1.527zm-12.216 6.108v1.527h-3.054V74.82h3.054v1.527zm-18.323 6.108v1.526h-3.054v-3.054h3.054v1.528zm-134.372 0v1.526h-6.107v-3.054h6.107v1.528zm122.156 6.107v1.527h-3.054v-3.054h3.054v1.527zm-167.964 4.581v3.054h-3.054v3.054h-3.054v-3.054h-3.054v6.108h-3.054v-3.054h-3.053v6.108h-6.108v3.054h-6.108v-3.054h-6.108v3.054h3.054v3.053h-6.108v3.054h-6.107v3.054h-6.108v3.054h-6.108v-3.054h-3.054v6.108h-6.108v3.054H70.24v-3.054h-6.108v-3.054h6.107v-3.054h6.108v-3.054h6.108v-3.054h6.108v-3.053h6.108v-3.054h6.107v-3.054h6.108v-3.054h6.108v-3.054h9.162v-3.054h6.107V90.09h12.216v3.054zm186.287 1.527v1.527h-3.053v-3.054h3.053v1.527zm-36.646 0v1.527h-3.054v-3.054h3.054v1.527zm-12.216 0v1.527h-9.161v3.054h3.053v3.054h-3.053v-3.054h-3.054v3.054h-3.054v-6.108h6.108v-3.054h9.161v1.527zm-140.479 0v1.527h-3.054v-3.054h3.054v1.527zm171.018 6.108v1.527h-3.054v-3.054h3.054v1.527zm-48.862 0v1.527h-6.108v-3.054h6.108v1.527zm-137.425 0v1.527h-3.054v3.054h-6.108v-3.054h6.108v-3.054h3.054v1.527zm82.455 6.108v1.527h-3.054v-3.054h3.054v1.527zm-100.779 3.054v1.526h-6.107v3.054h-6.108v3.054h-3.054v-3.054h3.054v-3.054h6.107v-3.053h6.108v1.527zm183.234 7.634v3.054h-3.054v12.216h-3.054v6.107h-3.054v3.054h-3.054v3.054h-3.054v3.054h-3.053v3.054h-3.054v3.054h-3.054v3.054h-3.054v3.054h-3.054v3.054h-6.108v3.054h-6.108v3.053h-6.107v3.054h-6.108v3.054h-9.162v3.054h-6.108v3.054h-9.161v3.054h-9.162v3.054h-6.108v-3.054h-3.054v3.054h-3.054v-3.054h-3.053v-6.108h3.053v-3.054h6.108v-3.054h9.162v-3.054h6.108v-3.053h6.107v-3.054h3.054v-3.054h6.108v-3.054h3.054v-3.054h3.054v-3.054h3.054v-6.108h3.054v-3.054h3.054v-12.215h9.161v-3.054h12.216v-3.054h6.108v-3.054h9.161v-3.054h9.162v-3.054h3.054v3.054zm-97.725-1.527v1.527h-3.054v-3.054h3.054v1.527zm15.27 6.108v4.581h-3.054v-3.054h-3.054v3.054h-6.108v6.108h3.054v-3.054h9.162v3.054h-6.108v3.054h-9.162v3.053h-9.161v3.054h-6.108v-3.054h3.054v-3.053h12.215v-6.108h-3.054v3.054h-9.161v-3.054h9.161v-3.054h-3.053v-3.054h3.053v3.054h3.054v-3.054h9.162v-3.054h-3.054v-3.054h3.054v3.054h3.054v-3.054h3.054v4.581zm-125.21-3.054v1.527h-3.054v3.054H70.24v-3.054h6.107v-3.054h3.054v1.527zm94.671 6.108v1.527h-3.054v-3.054h3.054v1.527zM58.024 137.426v1.526H54.97v-3.053h3.054v1.527zm-15.27 0v1.526h-3.053v-3.053h3.054v1.527zm-6.107 0v1.526h-3.054v3.054h-6.108v3.054h-6.108v-3.054h6.108v-3.054h6.108v-3.053h3.054v1.527zm122.155 4.58v3.054h-9.161v3.054h-3.054v3.054h-3.054v3.054h-3.054v3.054h-3.054v3.054h-6.108v3.054h-6.107v3.054h-6.108v3.053h-6.108v3.054h-6.108v3.054h-9.161v3.054H85.509v3.054H73.293v3.054H61.078v-3.054h12.215v-3.054h9.162v-3.054h9.162v-3.054h9.161v-3.054h6.108v-3.053h6.108v-3.054h9.162v-3.054h6.107v-3.054h6.108v-3.054h3.054v-3.054h3.054v-3.054h3.054v-3.054h-6.108v3.054H125.21v3.054h-9.162v3.054h-9.162v3.054h-9.161v3.054h-6.108v3.054h-6.108v3.054h-6.108v3.053h-6.108v3.054h-6.107v-3.054h6.107v-3.053h3.054v-3.054h6.108v-3.054h6.108v-3.054h9.162v-3.054h6.107v-3.054h12.216v-3.054h9.162v-3.054h12.215v-3.054h9.162v3.054h3.054v-3.054h6.107v-3.054h3.054v3.054zm-106.886-1.527v1.527h-3.054v-3.054h3.054v1.527zm-6.108 3.054v1.527h-3.053v-3.054h3.053v1.527zm106.887 12.216v1.527h-3.054v3.054h-3.054v3.054h-6.108v3.054h-3.054v3.053h-6.108v3.054h-6.107v3.054h-6.108v3.054h-9.162v3.054h-6.108v-3.054h6.108v-3.054h6.108v-3.054h6.108v-3.054h6.107v-3.053h6.108v-3.054h6.108v-3.054h6.108v-3.054h3.054v-3.054h3.054v1.527zm103.832 3.054v1.527h-3.054v-3.054h3.054v1.527zm-6.108 3.054v1.527h-3.054v-3.054h3.054v1.527zm-180.18 0v1.527h-3.053v3.054h-6.108v3.053H54.97v3.054h-6.108v-3.054h6.108v-3.053h6.108v-3.054h6.108v-3.054h3.054v1.527zm174.072 3.054v1.527h-3.054v-3.054h3.054v1.527zm-6.107 3.053v1.527h-3.054v-3.053h3.054v1.526zm-6.108 3.054v1.527h-3.054v-3.054h3.054v1.527zm-9.162 3.054v1.527h-3.054v-3.054h3.054v1.527zm-6.108 3.054v1.527h-3.054v-3.054h3.054v1.527zm-9.161 3.054v1.527h-3.054v-3.054h3.054v1.527zm-164.91 0v1.527h-6.108v-3.054h6.107v1.527zm155.748 3.054v1.527h-3.054v-3.054h3.054v1.527zm-97.725 0v1.527h-3.053v-3.054h3.053v1.527zm51.917 6.108v1.527h-6.108v3.054h-6.108v3.053h-6.108v3.054h-6.108v3.054h-6.107v-3.054h6.107v-3.054h6.108v-3.053h6.108v-3.054h6.108v-3.054h6.108v1.527zm30.539 9.161v1.527h-3.054v-3.054h3.054v1.527zm-64.132 0v1.527h-3.054v-3.054h3.054v1.527zm58.024 3.054v1.527h-6.108v-3.054h6.108v1.527zm-64.132 0v1.527h6.108v3.054h-6.108v3.054h-6.108v3.054h-3.054v-3.054h3.054v-3.054h-3.054v-3.054h3.054v3.054h6.108v-3.054h-3.054v-3.054h3.054v1.527zm54.97 3.054v1.527h-3.054v-3.054h3.054v1.527zm-155.748 0v1.527H9.162v-3.054h3.054v1.527zm149.64 3.054v1.527h-3.054v-3.054h3.054v1.527zm-61.078 0v1.527h-3.053v-3.054h3.053v1.527zm-97.724 0v1.527H0v-3.054h3.054v1.527zm152.694 3.054v1.527h-3.053v-3.054h3.053v1.527zm-6.107 3.054v1.527h-3.054v-3.054h3.054v1.527zm-48.863 0v1.527h-6.107v3.054h-6.108v3.054h-6.108v3.053h-3.054v-3.053h3.054v-3.054h6.108V215.3h6.108v-3.054h6.107v1.527zm42.755 3.054v1.527h-3.054V215.3h3.054v1.527zm-6.108 3.054v1.527h-3.054v-3.054h3.054v1.527zm-6.108 3.054v1.526h-3.054v-3.053h3.054v1.527zm-6.107 3.053v1.527h-3.054v-3.054h3.054v1.527zm-21.378 0v1.527h-3.054v-3.054h3.054v1.527zm15.27 3.054v1.527h-3.054v-3.054h3.054v1.527zm-21.377 0v1.527H94.67v-3.054h3.054v1.527zm-6.108 2.443c0 .896-.034.917-1.527.917-1.493 0-1.527-.021-1.527-.917 0-.895.034-.916 1.527-.916 1.493 0 1.527.021 1.527.916z"/><path fill="#fff" d="M503.892 6.108v1.527h-3.054v3.054h-3.054v3.054h-3.054v3.054h-3.053v-3.054h-3.054V4.58h15.269v1.527zm-24.431 3.054v1.527h-6.108v3.054h-12.215v3.054h-9.162v3.053h-9.162v3.054h-3.054v-6.107h9.162v-3.054h9.162v-3.054h12.215V7.635h9.162v1.527zm-48.862 3.054v1.527h-3.054v-3.054h3.054v1.527zm-6.108 0v1.527h-3.054v3.054h12.216v9.161h3.053v3.054h-6.107v3.054h-9.162v3.054h-6.108v3.054h-9.161v3.054h-6.108v3.054h-9.162v3.054h-9.162v3.053h-6.107v3.054h-9.162v3.054h-6.108v3.054h-9.162v3.054h-6.107v3.054h-6.108v3.054h-9.162v3.054h-6.108v3.054h-9.161v3.054h-6.108v3.053h-9.162v3.054h-6.107v3.054h-9.162v3.054h-6.108v3.054h3.054v3.054h3.054v-3.054h3.054V90.09h9.161v-3.054h3.054v3.054h3.054v-6.108h12.216v-3.054h3.054v-3.053h9.161V74.82h3.054v3.055h3.054v-6.108h12.216v-3.054h3.054v-3.054h9.161v-3.054h3.054v3.054h3.054V59.55h12.216v-3.054h3.054v-3.054h9.161V50.39h3.054v3.054h3.054V50.39h3.054v-3.053h9.162v-3.054h3.053v3.054h3.054v-6.108h12.216v-3.054h3.054V35.12h9.161v-3.054h3.054v6.108h3.054v3.054h-3.054v3.054h-12.215v3.054h-3.054v3.053h-9.162v3.054h-3.054v3.054h3.054v3.054h3.054v-6.108h12.216V50.39h3.054v-3.053h9.161v-3.054h3.054v6.106h-12.215v3.054h-3.054v3.054h-9.162v3.054h-3.054v3.054h-9.162v3.054h-3.053v3.054h-9.162v3.054h-3.054v-3.054h-3.054v6.108h-12.215v3.054h-3.054V74.82h-3.054v6.108h-6.108v3.054h-3.054v-3.054h-3.054v3.054h-3.054v3.054h-9.161v3.054h-3.054v-3.054h-3.054v6.108h-6.108v3.054h-3.054v-3.054h-3.054v3.054h-3.054v3.054h-9.161v3.054h-3.054v-3.054h-3.054v3.054h-3.054v3.053h-9.162v3.054h-3.054v-3.054h-3.053v3.054h-3.054v3.054h-9.162v3.054h-3.054v-3.054h-3.054v3.054h-3.054v3.054h-9.161v3.054h-3.054v-3.054h-3.054v3.054h-3.054v3.054h-9.162v3.054h-3.054v-3.054h-3.054v3.054h-3.053v-3.054h-3.054v6.108H219.88v3.054h-6.108v3.053h-12.215v3.054h-9.162v3.054h-9.162v3.054h-15.269v-3.054h-3.054v-3.054h9.162v-3.054h3.054v-3.053h-3.054v-3.054h-3.054v6.107h-9.162v-6.107h3.054v3.054h3.054v-3.054h3.054v-3.054h-3.054v-3.054h3.054v-3.054h3.054v3.054h3.054v3.054h3.054v-6.108h-3.054v-3.054h3.054v3.054h6.107v-3.054h-3.054v-3.054h3.054v-3.054h3.054v3.054h6.108v-3.054h-3.054v-3.054h3.054v3.054h6.108v-3.054h-3.054v-3.054h3.054v-3.053h3.054v-3.054h3.054v-3.054h3.053v3.054h-3.053v3.054h-3.054v3.053h6.107v-3.053h6.108v-3.054h3.054v-3.054h-3.054v-3.054h3.054V90.09h-6.108v-3.054h-3.054v-3.054h3.054v-3.054h-6.107v3.054h-6.108v-3.054h6.108v-3.053h-30.539v3.053h-6.108v3.054h3.054v3.054h-3.054v-3.054h-9.162v3.054h3.054v3.054h-3.054v-3.054h-9.162v3.054h-3.053v3.054h3.053v3.054h-3.053v-3.054h-6.108v-9.162h6.108v-3.054h6.107v-3.053h6.108V74.82h6.108v-3.054h6.108v-3.054h6.108v-3.054h9.161v-3.054h12.216V59.55h15.269v-3.054h27.485v3.054h6.108v3.054h3.054v3.054h3.054v6.108h3.054v3.054h-3.054v-3.054h-6.108v3.054h-6.108v3.055h3.054v3.053h-3.054v-3.053h-6.108v3.053h-6.107v3.054h3.054v3.054h-3.054v-3.054h-6.108v3.054h-6.108v3.054h3.054v3.054h-3.054v3.054h6.108v-3.054h6.108V90.09h6.107v-3.054h6.108v-3.054h6.108v-3.054h6.108v-3.053h6.108V74.82h6.107v-3.054h6.108v-3.054h9.162v-3.054h6.108v-3.054h6.107V59.55h6.108v-3.054h6.108v-3.054h6.108V50.39h-3.054v-3.053h3.054v-3.054h3.054v3.054h-3.054v3.053h6.108v-3.053h9.161v-3.054h6.108v-3.054h-3.054v-3.054h3.054V35.12h3.054v3.054h-3.054v3.054h9.162v-3.054h-3.054V35.12h3.054v-3.054h3.054v3.054h-3.054v3.054h9.161V35.12h-3.054v-3.054h3.054v-3.054h3.054v3.054h-3.054v3.054h9.162v-3.054h9.162v-3.054h9.161v-3.054h12.216v-3.054h12.216v-3.053h-3.054v-3.054h3.054v-3.054h3.053v3.054h-3.053v3.053h15.269v-3.053h-3.054v-3.054h3.054v-3.054h3.054v1.527zm-9.162 3.054v1.527h-3.054v-3.054h3.054v1.527zm-15.269 3.054v1.526h-3.054v-3.053h3.054v1.527zm-6.108 0v1.526h-3.054v3.054h-3.054v-3.053h3.054v-3.054h3.054v1.527zm-9.162 3.053v1.527h-3.054v-3.053h3.054v1.527zm-9.161 3.054v1.527h-3.054v-3.054h3.054v1.527zm-9.162 3.054v1.527h-3.054v-3.054h3.054v1.527zm70.239 12.216v1.527h-3.053v-3.054h3.053V39.7zm-6.107 0v1.527h-3.054v-3.054h3.054V39.7zm-103.833 3.054v1.527h-3.054v-3.054h3.054v1.527zm97.725 3.054v1.527h-3.054v-3.054h3.054v1.527zm-6.108 0v1.527h-3.054v-3.054h3.054v1.527zm-109.94 3.053v1.527h-3.054v3.054h-3.054V50.39h3.054v-3.053h3.054v1.526zm103.832 3.054v1.527h-3.054V50.39h3.054v1.527zm-6.107 0v1.527h-3.054V50.39h3.054v1.527zm-6.108 0v1.527h-3.054V50.39h3.054v1.527zM296.227 54.97v1.527h-3.053v-3.054h3.053v1.527zm116.048 3.054v1.527h-6.107v6.108h-3.054v-3.054h-3.054v3.054h-12.216v6.108h-3.054v-3.054h-3.054v3.054h-9.161v3.054h-3.054v3.054h-3.054V74.82h-3.054v3.055h-9.162v3.053h3.054v3.054h-3.054v-3.054h-3.054v3.054h-3.053v-3.054h-3.054v3.054h-9.162v3.054h3.054v3.054h-3.054v-3.054h-3.054v3.054h-3.054v-3.054h-3.054v3.054h-9.161v3.054h3.054v3.054h-3.054v-3.054h-3.054v3.054h-12.216v6.108h-3.054v-3.054h-3.054v3.054h-9.161v3.053h3.054v3.054h-3.054v-3.054h-3.054v3.054h-3.054v-3.054h-3.054v3.054h-9.162v3.054h3.054v3.054h-3.054v-3.054h-3.054v3.054h-3.053v-3.054h-3.054v3.054h-9.162v3.054h3.054v3.054h-3.054v-3.054h-3.054v3.054h-3.054v-3.054h-3.054v3.054h-9.161v3.054h-3.054v3.054h-3.054v-3.054h-3.054v3.054h-9.162v3.054h-3.054v3.054h-3.053v-9.162h3.053v3.054h3.054v-3.054h9.162v-3.054h-3.054v-3.054h-3.054v3.054h-9.161v-3.054h9.161v-3.054h3.054v-3.054h9.162v3.054h-6.108v6.108h3.054v-3.054h3.054v3.054h3.054v-3.054h9.161v-3.054h-3.054v-3.054h-3.053v3.054h-3.054v-6.108h6.107v-3.054h9.162v-3.053h3.054v3.053h3.054v3.054h-3.054v-3.054h-3.054v3.054h-9.162v3.054h3.054v3.054h3.054v-3.054h3.054v3.054h3.054v-3.054h9.162v-3.054h-3.054v-3.054h3.054v3.054h3.054v-3.054h3.053v3.054h3.054v-3.054h9.162v-3.053h-3.054v-3.054h3.054v3.054h3.054v-3.054h3.054v3.054h3.054v-3.054h6.108v-6.108h3.053v3.054h3.054v-3.054h12.216v-6.108h3.054v3.054h3.054v-3.054h9.161v-3.054h-3.054v-3.054h3.054v3.054h3.054v-3.054h3.054v3.054h3.054v-3.054h9.162v-3.053h-3.054V74.82h3.054v3.055h3.054V74.82h3.053v3.055h3.054V74.82h9.162v-3.054h-3.054v-3.054h3.054v3.054h3.054v-3.054h3.054v3.054h3.054v-3.054h9.161v-3.054h-3.053v-3.054h3.053v3.054h3.054v-3.054h12.216v-6.108h3.054v3.054h3.054v-3.054h9.161v1.527zm-18.323 0v1.527h-3.054v-3.054h3.054v1.527zm-6.108 0v1.527h-3.054v-3.054h3.054v1.527zm-6.108 0v1.527h-3.053v-3.054h3.053v1.527zm-97.724 3.054v1.527h-3.054v-3.054h3.054v1.527zm91.617 3.054v1.527h-3.054v-3.054h3.054v1.527zm-6.108 0v1.527h-3.054v-3.054h3.054v1.527zm-97.725 3.054v1.527h-3.054v-3.054h3.054v1.527zm85.509 3.054v1.527h-3.054v-3.054h3.054v1.527zm-6.108 0v1.527h-3.053v-3.054h3.053v1.527zm-12.215 6.108v1.526h-3.054v-3.053h3.054v1.526zm-18.323 6.107v1.527h-3.054v-3.054h3.054v1.527zm-134.372 0v1.527h-6.107v-3.054h6.107v1.527zm122.156 6.108v1.527h-3.054v-3.054h3.054v1.527zm-167.964 4.58v3.055h-3.054v3.054h-3.054v-3.054h-3.054v6.108h-3.054v-3.054h-3.054v6.107h-6.107v3.054h-6.108v-3.054h-6.108v3.054h3.054v3.054h-6.108v3.054h-6.108v3.054h-6.107v3.054h-6.108v-3.054h-3.054v6.108h-6.108v3.054H70.24v-3.054h-6.108v-3.054h6.107v-3.054h6.108v-3.054h6.108v-3.054h6.108v-3.054h6.107v-3.054h6.108v-3.053h6.108v-3.054h6.108v-3.054h9.162v-3.054h6.107V90.09h12.216v3.054zm186.287 1.528v1.527h-3.054v-3.054h3.054v1.527zm-36.646 0v1.527h-3.054v-3.054h3.054v1.527zm-12.216 0v1.527h-9.162v3.054h3.054v3.054h-3.054v-3.054h-3.054v3.054h-3.053v-6.108h6.107v-3.054h9.162v1.527zm-140.479 0v1.527h-3.054v-3.054h3.054v1.527zm171.018 6.108v1.527h-3.054v-3.054h3.054v1.527zm-48.862 0v1.527h-6.108v-3.054h6.108v1.527zm-137.425 0v1.527h-3.054v3.053h-6.108v-3.053h6.108v-3.054h3.054v1.527zm82.455 6.107v1.527h-3.054v-3.054h3.054v1.527zm-100.779 3.054v1.527h-6.108v3.054h-6.107v3.054h-3.054v-3.054h3.054v-3.054h6.107v-3.054h6.108v1.527zm183.234 7.635v3.054h-3.054v12.216h-3.054v6.107h-3.054v3.054h-3.054v3.054h-3.054v3.054h-3.054v3.054h-3.054v3.054h-3.053v3.054h-3.054v3.054h-3.054v3.053h-6.108v3.054h-6.108v3.054h-6.108v3.054h-6.107v3.054h-9.162v3.054h-6.108v3.054h-9.161v3.054h-9.162v3.054h-6.108v-3.054h-3.054v3.054h-3.054v-3.054h-3.054v-6.108h3.054v-3.054h6.108v-3.054h9.162v-3.054h6.108v-3.054h6.107v-3.054h3.054v-3.053h6.108v-3.054h3.054v-3.054h3.054v-3.054h3.054v-6.108h3.054v-3.054h3.053v-12.215h9.162v-3.054h12.216v-3.054h6.107v-3.054h9.162v-3.054h9.162v-3.054h3.054v3.054zm-97.725-1.527v1.527h-3.054v-3.054h3.054v1.527zm15.27 6.108v4.581h-3.054v-3.054h-3.054v3.054h-6.108v6.108h3.054v-3.054h9.162v3.054h-6.108v3.053h-9.162v3.054h-9.161v3.054h-6.108v-3.054h3.054v-3.054h12.215v-6.107h-3.054v3.054h-9.161v-3.054h9.161v-3.054h-3.054v-3.054h3.054v3.054h3.054v-3.054h9.162v-3.054h-3.054v-3.054h3.054v3.054h3.054v-3.054h3.054v4.581zm-125.21-3.054v1.527h-3.054v3.054H70.24v-3.054h6.108v-3.054h3.054v1.527zm94.671 6.108v1.527h-3.054v-3.054h3.054v1.527zm-15.27 16.796v3.054h-9.161v3.054h-3.054v3.054h-3.054v3.054h-3.054v3.054h-3.054v3.054h-6.108v3.053h-6.108v3.054h-6.107v3.054h-6.108v3.054h-6.108v3.054h-9.161v3.054H85.508v3.054H73.293v3.054H61.078v-3.054h12.215v-3.054h9.162v-3.054h9.162v-3.054h9.161v-3.054h6.108v-3.054h6.108v-3.054h9.162v-3.053h6.107v-3.054h6.108v-3.054h3.054v-3.054h3.054v-3.054h3.054v-3.054h-6.108v3.054h-12.216v3.054h-9.161v3.054h-9.162v3.054h-9.161v3.054h-6.108v3.053h-6.108v3.054H79.4v3.054h-6.108v3.054h-6.106v-3.054h6.107v-3.054h3.054v-3.054h6.108v-3.053h6.108v-3.054h9.161v-3.054h6.108v-3.054h12.216v-3.054h9.161v-3.054h12.216v-3.054h9.162v3.054h3.054v-3.054h6.107v-3.054h3.054v3.054zm-6.108 13.743v1.527h-3.053v3.054h-3.054v3.053h-6.108v3.054h-3.054v3.054h-6.108v3.054h-6.108v3.054h-6.107v3.054h-9.162v3.054h-6.108v-3.054h6.108v-3.054h6.108v-3.054h6.108v-3.054h6.107v-3.054h6.108v-3.054h6.108v-3.053h6.108v-3.054h3.054v-3.054h3.053v1.527zm103.833 3.054v1.527h-3.054v-3.054h3.054v1.527zm-6.108 3.054v1.526h-3.054v-3.053h3.054v1.527zm-180.18 0v1.526h-3.053v3.054h-6.108v3.054H54.97v3.054h-6.108v-3.054h6.108v-3.054h6.108v-3.054h6.107v-3.053h3.054v1.527zm174.072 3.053v1.527h-3.054v-3.054h3.054v1.527zm-6.108 3.054v1.527h-3.053v-3.054h3.053v1.527zm-6.107 3.054v1.527h-3.054v-3.054h3.054v1.527zm-9.162 3.054v1.527h-3.054v-3.054h3.054v1.527zm-6.108 3.054v1.527h-3.054v-3.054h3.054v1.527zm-9.161 3.054v1.527h-3.054v-3.054h3.054v1.527zm-164.91 0v1.527h-6.109v-3.054h6.108v1.527zm155.748 3.054v1.527h-3.054v-3.054h3.054v1.527zm-97.725 0v1.527h-3.054v-3.054h3.054v1.527z"/></g><defs><clipPath id="a"><path fill="#fff" d="M510 0H0v232.401h510z"/></clipPath></defs></svg>